# xmcd CD database file
#
# Track frame offsets:
#	150
#	13810
#	29922
#	47677
#	60025
#	76567
#	92127
#	110117
#	129095
#	142737
#	160485
#
# Disc length: 2346 seconds
#
# Revision: 0
# Processed by: cddbd v1.5.2PL0 Copyright (c) Steve Scherf et al.
# Submitted via: CdAid (MTCDDB.DLL V2003.12.21)
#
DISCID=8309280b
DTITLE=Carlos e Alessandro - Carlos e Alessandro
DYEAR=1995
DGENRE=Folk
TTITLE0=Coração pelo avesso
TTITLE1=Vou me guardar
TTITLE2=Ela não vem
TTITLE3=Vendi os bois
TTITLE4=Primavera
TTITLE5=Bar do ponto
TTITLE6=Tô querendo mais
TTITLE7=O mais importante é o verdadeiro amor
TTITLE8=Cara pirata
TTITLE9=Sem seu amor
TTITLE10=Quem ela pensa que é
EXTD=ID3G:  80 YEAR: 1995
EXTT0=
EXTT1=
EXTT2=
EXTT3=
EXTT4=
EXTT5=
EXTT6=
EXTT7=
EXTT8=
EXTT9=
EXTT10=
PLAYORDER=
